{
 "cells": [
  {
   "cell_type": "code",
   "execution_count": 1,
   "metadata": {},
   "outputs": [
    {
     "name": "stdout",
     "output_type": "stream",
     "text": [
      "2017-11-07 17:57:10.623316: W tensorflow/core/platform/cpu_feature_guard.cc:45] The TensorFlow library wasn't compiled to use SSE4.1 instructions, but these are available on your machine and could speed up CPU computations.\n",
      "2017-11-07 17:57:10.623363: W tensorflow/core/platform/cpu_feature_guard.cc:45] The TensorFlow library wasn't compiled to use SSE4.2 instructions, but these are available on your machine and could speed up CPU computations.\n",
      "2017-11-07 17:57:10.623403: W tensorflow/core/platform/cpu_feature_guard.cc:45] The TensorFlow library wasn't compiled to use AVX instructions, but these are available on your machine and could speed up CPU computations.\n",
      "2017-11-07 17:57:10.623419: W tensorflow/core/platform/cpu_feature_guard.cc:45] The TensorFlow library wasn't compiled to use AVX2 instructions, but these are available on your machine and could speed up CPU computations.\n",
      "2017-11-07 17:57:10.623472: W tensorflow/core/platform/cpu_feature_guard.cc:45] The TensorFlow library wasn't compiled to use FMA instructions, but these are available on your machine and could speed up CPU computations.\n",
      "2017-11-07 17:57:10.683103: I tensorflow/stream_executor/cuda/cuda_gpu_executor.cc:893] successful NUMA node read from SysFS had negative value (-1), but there must be at least one NUMA node, so returning NUMA node zero\n",
      "2017-11-07 17:57:10.683395: I tensorflow/core/common_runtime/gpu/gpu_device.cc:955] Found device 0 with properties: \n",
      "name: Tesla K80\n",
      "major: 3 minor: 7 memoryClockRate (GHz) 0.8235\n",
      "pciBusID 0000:00:1e.0\n",
      "Total memory: 11.17GiB\n",
      "Free memory: 8.45GiB\n",
      "2017-11-07 17:57:10.683424: I tensorflow/core/common_runtime/gpu/gpu_device.cc:976] DMA: 0 \n",
      "2017-11-07 17:57:10.683439: I tensorflow/core/common_runtime/gpu/gpu_device.cc:986] 0:   Y \n",
      "2017-11-07 17:57:10.683455: I tensorflow/core/common_runtime/gpu/gpu_device.cc:1045] Creating TensorFlow device (/gpu:0) -> (device: 0, name: Tesla K80, pci bus id: 0000:00:1e.0)\n"
     ]
    }
   ],
   "source": [
    "!python evaluate.py --checkpoint checkpoints --in-path examples/content/sugarmapleinfall.jpg --out-path examples/my_output/sugarmapleinfall_rain.jpg --device '/gpu:0'"
   ]
  },
  {
   "cell_type": "code",
   "execution_count": 6,
   "metadata": {},
   "outputs": [
    {
     "name": "stdout",
     "output_type": "stream",
     "text": [
      "ffmpeg version 2.8.11-0ubuntu0.16.04.1 Copyright (c) 2000-2017 the FFmpeg developers\n",
      "  built with gcc 5.4.0 (Ubuntu 5.4.0-6ubuntu1~16.04.4) 20160609\n",
      "  configuration: --prefix=/usr --extra-version=0ubuntu0.16.04.1 --build-suffix=-ffmpeg --toolchain=hardened --libdir=/usr/lib/x86_64-linux-gnu --incdir=/usr/include/x86_64-linux-gnu --cc=cc --cxx=g++ --enable-gpl --enable-shared --disable-stripping --disable-decoder=libopenjpeg --disable-decoder=libschroedinger --enable-avresample --enable-avisynth --enable-gnutls --enable-ladspa --enable-libass --enable-libbluray --enable-libbs2b --enable-libcaca --enable-libcdio --enable-libflite --enable-libfontconfig --enable-libfreetype --enable-libfribidi --enable-libgme --enable-libgsm --enable-libmodplug --enable-libmp3lame --enable-libopenjpeg --enable-libopus --enable-libpulse --enable-librtmp --enable-libschroedinger --enable-libshine --enable-libsnappy --enable-libsoxr --enable-libspeex --enable-libssh --enable-libtheora --enable-libtwolame --enable-libvorbis --enable-libvpx --enable-libwavpack --enable-libwebp --enable-libx265 --enable-libxvid --enable-libzvbi --enable-openal --enable-opengl --enable-x11grab --enable-libdc1394 --enable-libiec61883 --enable-libzmq --enable-frei0r --enable-libx264 --enable-libopencv\n",
      "  libavutil      54. 31.100 / 54. 31.100\n",
      "  libavcodec     56. 60.100 / 56. 60.100\n",
      "  libavformat    56. 40.101 / 56. 40.101\n",
      "  libavdevice    56.  4.100 / 56.  4.100\n",
      "  libavfilter     5. 40.101 /  5. 40.101\n",
      "  libavresample   2.  1.  0 /  2.  1.  0\n",
      "  libswscale      3.  1.101 /  3.  1.101\n",
      "  libswresample   1.  2.101 /  1.  2.101\n",
      "  libpostproc    53.  3.100 / 53.  3.100\n",
      "Input #0, mov,mp4,m4a,3gp,3g2,mj2, from 'examples/content/chou.mp4':\n",
      "  Metadata:\n",
      "    major_brand     : mp42\n",
      "    minor_version   : 512\n",
      "    compatible_brands: isomiso2avc1mp41\n",
      "    creation_time   : 2017-11-05 22:30:02\n",
      "    encoder         : HandBrake 1.0.7 2017040900\n",
      "  Duration: 00:00:13.33, start: 0.000000, bitrate: 3137 kb/s\n",
      "    Stream #0:0(und): Video: h264 (Main) (avc1 / 0x31637661), yuv420p(tv, bt709), 720x480 [SAR 3:8 DAR 9:16], 2990 kb/s, 24 fps, 24 tbr, 90k tbn, 180k tbc (default)\n",
      "    Metadata:\n",
      "      creation_time   : 2017-11-05 22:30:02\n",
      "      handler_name    : VideoHandler\n",
      "    Stream #0:1(und): Audio: aac (LC) (mp4a / 0x6134706D), 44100 Hz, mono, fltp, 158 kb/s (default)\n",
      "    Metadata:\n",
      "      creation_time   : 2017-11-05 22:30:02\n",
      "      handler_name    : Mono\n",
      "Output #0, image2, to '.fns_frames_26930/in/frame_%d.png':\n",
      "  Metadata:\n",
      "    major_brand     : mp42\n",
      "    minor_version   : 512\n",
      "    compatible_brands: isomiso2avc1mp41\n",
      "    encoder         : Lavf56.40.101\n",
      "    Stream #0:0(und): Video: png, rgb24, 720x480 [SAR 3:8 DAR 9:16], q=2-31, 200 kb/s, 24 fps, 24 tbn, 24 tbc (default)\n",
      "    Metadata:\n",
      "      creation_time   : 2017-11-05 22:30:02\n",
      "      handler_name    : VideoHandler\n",
      "      encoder         : Lavc56.60.100 png\n",
      "Stream mapping:\n",
      "  Stream #0:0 -> #0:0 (h264 (native) -> png (native))\n",
      "Press [q] to stop, [?] for help\n",
      "frame=  318 fps= 59 q=-0.0 Lsize=N/A time=00:00:13.25 bitrate=N/A    \n",
      "video:135917kB audio:0kB subtitle:0kB other streams:0kB global headers:0kB muxing overhead: unknown\n",
      "2017-11-05 22:36:18.199171: W tensorflow/core/platform/cpu_feature_guard.cc:45] The TensorFlow library wasn't compiled to use SSE4.1 instructions, but these are available on your machine and could speed up CPU computations.\n",
      "2017-11-05 22:36:18.199209: W tensorflow/core/platform/cpu_feature_guard.cc:45] The TensorFlow library wasn't compiled to use SSE4.2 instructions, but these are available on your machine and could speed up CPU computations.\n",
      "2017-11-05 22:36:18.199226: W tensorflow/core/platform/cpu_feature_guard.cc:45] The TensorFlow library wasn't compiled to use AVX instructions, but these are available on your machine and could speed up CPU computations.\n",
      "2017-11-05 22:36:18.199239: W tensorflow/core/platform/cpu_feature_guard.cc:45] The TensorFlow library wasn't compiled to use AVX2 instructions, but these are available on your machine and could speed up CPU computations.\n",
      "2017-11-05 22:36:18.199252: W tensorflow/core/platform/cpu_feature_guard.cc:45] The TensorFlow library wasn't compiled to use FMA instructions, but these are available on your machine and could speed up CPU computations.\n",
      "2017-11-05 22:36:18.276145: I tensorflow/stream_executor/cuda/cuda_gpu_executor.cc:893] successful NUMA node read from SysFS had negative value (-1), but there must be at least one NUMA node, so returning NUMA node zero\n",
      "2017-11-05 22:36:18.276468: I tensorflow/core/common_runtime/gpu/gpu_device.cc:955] Found device 0 with properties: \n",
      "name: Tesla K80\n",
      "major: 3 minor: 7 memoryClockRate (GHz) 0.8235\n",
      "pciBusID 0000:00:1e.0\n",
      "Total memory: 11.17GiB\n",
      "Free memory: 11.11GiB\n",
      "2017-11-05 22:36:18.276497: I tensorflow/core/common_runtime/gpu/gpu_device.cc:976] DMA: 0 \n",
      "2017-11-05 22:36:18.276512: I tensorflow/core/common_runtime/gpu/gpu_device.cc:986] 0:   Y \n",
      "2017-11-05 22:36:18.276526: I tensorflow/core/common_runtime/gpu/gpu_device.cc:1045] Creating TensorFlow device (/gpu:0) -> (device: 0, name: Tesla K80, pci bus id: 0000:00:1e.0)\n",
      "2017-11-05 22:39:00.165570: I tensorflow/core/common_runtime/gpu/gpu_device.cc:1045] Creating TensorFlow device (/gpu:0) -> (device: 0, name: Tesla K80, pci bus id: 0000:00:1e.0)\n",
      "ffmpeg version 2.8.11-0ubuntu0.16.04.1 Copyright (c) 2000-2017 the FFmpeg developers\n",
      "  built with gcc 5.4.0 (Ubuntu 5.4.0-6ubuntu1~16.04.4) 20160609\n",
      "  configuration: --prefix=/usr --extra-version=0ubuntu0.16.04.1 --build-suffix=-ffmpeg --toolchain=hardened --libdir=/usr/lib/x86_64-linux-gnu --incdir=/usr/include/x86_64-linux-gnu --cc=cc --cxx=g++ --enable-gpl --enable-shared --disable-stripping --disable-decoder=libopenjpeg --disable-decoder=libschroedinger --enable-avresample --enable-avisynth --enable-gnutls --enable-ladspa --enable-libass --enable-libbluray --enable-libbs2b --enable-libcaca --enable-libcdio --enable-libflite --enable-libfontconfig --enable-libfreetype --enable-libfribidi --enable-libgme --enable-libgsm --enable-libmodplug --enable-libmp3lame --enable-libopenjpeg --enable-libopus --enable-libpulse --enable-librtmp --enable-libschroedinger --enable-libshine --enable-libsnappy --enable-libsoxr --enable-libspeex --enable-libssh --enable-libtheora --enable-libtwolame --enable-libvorbis --enable-libvpx --enable-libwavpack --enable-libwebp --enable-libx265 --enable-libxvid --enable-libzvbi --enable-openal --enable-opengl --enable-x11grab --enable-libdc1394 --enable-libiec61883 --enable-libzmq --enable-frei0r --enable-libx264 --enable-libopencv\n",
      "  libavutil      54. 31.100 / 54. 31.100\n",
      "  libavcodec     56. 60.100 / 56. 60.100\n",
      "  libavformat    56. 40.101 / 56. 40.101\n",
      "  libavdevice    56.  4.100 / 56.  4.100\n",
      "  libavfilter     5. 40.101 /  5. 40.101\n",
      "  libavresample   2.  1.  0 /  2.  1.  0\n",
      "  libswscale      3.  1.101 /  3.  1.101\n",
      "  libswresample   1.  2.101 /  1.  2.101\n",
      "  libpostproc    53.  3.100 / 53.  3.100\n",
      "Input #0, image2, from '.fns_frames_26930/out/frame_%d.png':\n",
      "  Duration: 00:00:12.72, start: 0.000000, bitrate: N/A\n",
      "    Stream #0:0: Video: png, rgb24(pc), 720x480, 25 fps, 25 tbr, 25 tbn, 25 tbc\n",
      "File 'examples/my_output' already exists. Overwrite ? [y/N] ^C\n",
      "Traceback (most recent call last):\n",
      "  File \"transform_video.py\", line 90, in <module>\n",
      "    main()\n",
      "  File \"transform_video.py\", line 85, in main\n",
      "    subprocess.call(\" \".join(out_args), shell=True)\n",
      "  File \"/usr/lib/python2.7/subprocess.py\", line 523, in call\n",
      "    return Popen(*popenargs, **kwargs).wait()\n",
      "  File \"/usr/lib/python2.7/subprocess.py\", line 1392, in wait\n",
      "    pid, sts = _eintr_retry_call(os.waitpid, self.pid, 0)\n",
      "  File \"/usr/lib/python2.7/subprocess.py\", line 476, in _eintr_retry_call\n",
      "    return func(*args)\n",
      "KeyboardInterrupt\n"
     ]
    }
   ],
   "source": [
    "python transform_video.py --checkpoint check_rain --in-path examples/content/dance.mp4 --out-path examples/dance_rain.mp4 --device '/gpu:0'"
   ]
  },
  {
   "cell_type": "code",
   "execution_count": null,
   "metadata": {
    "collapsed": true
   },
   "outputs": [],
   "source": []
  }
 ],
 "metadata": {
  "kernelspec": {
   "display_name": "Python 2",
   "language": "python",
   "name": "python2"
  },
  "language_info": {
   "codemirror_mode": {
    "name": "ipython",
    "version": 2
   },
   "file_extension": ".py",
   "mimetype": "text/x-python",
   "name": "python",
   "nbconvert_exporter": "python",
   "pygments_lexer": "ipython2",
   "version": "2.7.12"
  }
 },
 "nbformat": 4,
 "nbformat_minor": 2
}
